<svg xmlns="http://www.w3.org/2000/svg" width="40" height="40" viewBox="0 0 40 40" fill="none">
  <defs>
    <linearGradient id="swirl1" x1="5" y1="10" x2="30" y2="35" gradientUnits="userSpaceOnUse">
      <stop offset="0%" stop-color="#A855F7"/>
      <stop offset="100%" stop-color="#581C87"/>
    </linearGradient>
    <linearGradient id="swirl2" x1="10" y1="15" x2="28" y2="30" gradientUnits="userSpaceOnUse">
      <stop offset="0%" stop-color="#C084FC"/>
      <stop offset="100%" stop-color="#7C3AED"/>
    </linearGradient>
    <linearGradient id="env" x1="26" y1="6" x2="36" y2="16" gradientUnits="userSpaceOnUse">
      <stop offset="0%" stop-color="#DDD6FE"/>
      <stop offset="100%" stop-color="#A78BFA"/>
    </linearGradient>
  </defs>
  <!-- Outer V-swirl arc -->
  <path d="M8 12C5 20 6 30 16 34C24 37 32 32 34 24C35 20 33 16 28 15L22 18C26 17 29 19 28 24C27 28 22 31 17 30C12 29 10 24 12 18Z" fill="url(#swirl1)"/>
  <!-- Inner swirl stroke -->
  <path d="M12 18C13 14 17 11 22 13L28 15C24 12 18 10 13 14C10 17 10 20 12 18Z" fill="url(#swirl2)"/>
  <!-- Flying envelope -->
  <rect x="27" y="5" width="10" height="7" rx="1" fill="url(#env)" transform="rotate(-15 32 8.5)"/>
  <path d="M27.5 5.5L32 9.5L36.5 5.5" stroke="#7C3AED" stroke-width="0.8" stroke-linecap="round" stroke-linejoin="round" transform="rotate(-15 32 8.5)" opacity="0.6"/>
  <!-- Motion lines -->
  <line x1="24" y1="11" x2="27" y2="9" stroke="#C084FC" stroke-width="0.8" stroke-linecap="round" opacity="0.5"/>
  <line x1="25" y1="14" x2="28.5" y2="12" stroke="#C084FC" stroke-width="0.8" stroke-linecap="round" opacity="0.35"/>
</svg>
